REM DIRINDEX 1\6,1\2\7,1\2\8,1\2\9,1\3\10,1\3\11,1\4\12,1\4\13,1\4\14,1\5\15,1\5\16,1\5\17
REM DIRNAME cjc040,folder01,folder02,folder03,folder04,folder05,folder06,folder07,folder08,folder09,folder10,folder11,folder12,folder13,folder14,folder15,folder16
TITLE ""
FILE "P2Q_j_1436-1449.mp3" MP3
  TRACK 01 AUDIO
    TITLE "12:cjc040_1053"
    INDEX 01 00:00:00
  TRACK 02 AUDIO
    TITLE "0:"
    INDEX 01 00:01:46
  TRACK 03 AUDIO
    TITLE "13:cjc040_1054"
    INDEX 01 00:02:26
  TRACK 04 AUDIO
    TITLE "0:"
    INDEX 01 00:03:72
  TRACK 05 AUDIO
    TITLE "14:cjc040_1055"
    INDEX 01 00:04:50
  TRACK 06 AUDIO
    TITLE "0:"
    INDEX 01 00:09:12
  TRACK 07 AUDIO
    TITLE "12:cjc040_1056"
    INDEX 01 00:09:69
  TRACK 08 AUDIO
    TITLE "0:"
    INDEX 01 00:11:15
  TRACK 09 AUDIO
    TITLE "13:cjc040_1057"
    INDEX 01 00:11:68
  TRACK 10 AUDIO
    TITLE "0:"
    INDEX 01 00:13:39
  TRACK 11 AUDIO
    TITLE "14:cjc040_1058"
    INDEX 01 00:14:09
  TRACK 12 AUDIO
    TITLE "0:"
    INDEX 01 00:17:57
  TRACK 13 AUDIO
    TITLE "12:cjc040_1059"
    INDEX 01 00:18:37
  TRACK 14 AUDIO
    TITLE "0:"
    INDEX 01 00:20:10
  TRACK 15 AUDIO
    TITLE "13:cjc040_1060"
    INDEX 01 00:20:65
  TRACK 16 AUDIO
    TITLE "0:"
    INDEX 01 00:22:40
  TRACK 17 AUDIO
    TITLE "14:cjc040_1061"
    INDEX 01 00:23:14
  TRACK 18 AUDIO
    TITLE "0:"
    INDEX 01 00:27:63
  TRACK 19 AUDIO
    TITLE "12:cjc040_1062"
    INDEX 01 00:28:45
  TRACK 20 AUDIO
    TITLE "0:"
    INDEX 01 00:30:03
  TRACK 21 AUDIO
    TITLE "13:cjc040_1063"
    INDEX 01 00:30:54
  TRACK 22 AUDIO
    TITLE "0:"
    INDEX 01 00:32:19
  TRACK 23 AUDIO
    TITLE "14:cjc040_1064"
    INDEX 01 00:32:70
  TRACK 24 AUDIO
    TITLE "0:"
    INDEX 01 00:37:46
  TRACK 25 AUDIO
    TITLE "12:cjc040_1065"
    INDEX 01 00:38:26
  TRACK 26 AUDIO
    TITLE "0:"
    INDEX 01 00:40:15
  TRACK 27 AUDIO
    TITLE "13:cjc040_1066"
    INDEX 01 00:40:70
  TRACK 28 AUDIO
    TITLE "0:"
    INDEX 01 00:42:25
  TRACK 29 AUDIO
    TITLE "14:cjc040_1067"
    INDEX 01 00:42:72
  TRACK 30 AUDIO
    TITLE "0:"
    INDEX 01 00:52:45
  TRACK 31 AUDIO
    TITLE "12:cjc040_1068"
    INDEX 01 00:53:21
  TRACK 32 AUDIO
    TITLE "0:"
    INDEX 01 00:55:24
  TRACK 33 AUDIO
    TITLE "13:cjc040_1069"
    INDEX 01 00:56:04
  TRACK 34 AUDIO
    TITLE "0:"
    INDEX 01 00:58:28
  TRACK 35 AUDIO
    TITLE "14:cjc040_1070"
    INDEX 01 00:59:06
  TRACK 36 AUDIO
    TITLE "0:"
    INDEX 01 01:03:45
  TRACK 37 AUDIO
    TITLE "12:cjc040_1071"
    INDEX 01 01:04:25
  TRACK 38 AUDIO
    TITLE "0:"
    INDEX 01 01:06:30
  TRACK 39 AUDIO
    TITLE "13:cjc040_1072"
    INDEX 01 01:07:10
  TRACK 40 AUDIO
    TITLE "0:"
    INDEX 01 01:08:36
  TRACK 41 AUDIO
    TITLE "14:cjc040_1073"
    INDEX 01 01:09:14
  TRACK 42 AUDIO
    TITLE "0:"
    INDEX 01 01:13:49
  TRACK 43 AUDIO
    TITLE "12:cjc040_1074"
    INDEX 01 01:14:27
  TRACK 44 AUDIO
    TITLE "0:"
    INDEX 01 01:15:72
  TRACK 45 AUDIO
    TITLE "13:cjc040_1075"
    INDEX 01 01:16:50
  TRACK 46 AUDIO
    TITLE "0:"
    INDEX 01 01:17:63
  TRACK 47 AUDIO
    TITLE "14:cjc040_1076"
    INDEX 01 01:18:47
  TRACK 48 AUDIO
    TITLE "0:"
    INDEX 01 01:25:39
  TRACK 49 AUDIO
    TITLE "12:cjc040_1077"
    INDEX 01 01:26:23
  TRACK 50 AUDIO
    TITLE "0:"
    INDEX 01 01:28:00
  TRACK 51 AUDIO
    TITLE "13:cjc040_1078"
    INDEX 01 01:28:59
  TRACK 52 AUDIO
    TITLE "0:"
    INDEX 01 01:31:38
  TRACK 53 AUDIO
    TITLE "14:cjc040_1079"
    INDEX 01 01:32:13
  TRACK 54 AUDIO
    TITLE "0:"
    INDEX 01 01:37:58
  TRACK 55 AUDIO
    TITLE "12:cjc040_1080"
    INDEX 01 01:38:34
  TRACK 56 AUDIO
    TITLE "0:"
    INDEX 01 01:39:57
  TRACK 57 AUDIO
    TITLE "13:cjc040_1081"
    INDEX 01 01:40:35
  TRACK 58 AUDIO
    TITLE "0:"
    INDEX 01 01:42:04
  TRACK 59 AUDIO
    TITLE "14:cjc040_1082"
    INDEX 01 01:42:53
  TRACK 60 AUDIO
    TITLE "0:"
    INDEX 01 01:46:39
  TRACK 61 AUDIO
    TITLE "12:cjc040_1083"
    INDEX 01 01:47:19
  TRACK 62 AUDIO
    TITLE "0:"
    INDEX 01 01:48:58
  TRACK 63 AUDIO
    TITLE "13:cjc040_1084"
    INDEX 01 01:49:32
  TRACK 64 AUDIO
    TITLE "0:"
    INDEX 01 01:50:60
  TRACK 65 AUDIO
    TITLE "14:cjc040_1085"
    INDEX 01 01:51:34
  TRACK 66 AUDIO
    TITLE "0:"
    INDEX 01 01:57:37
  TRACK 67 AUDIO
    TITLE "12:cjc040_1086"
    INDEX 01 01:58:13
  TRACK 68 AUDIO
    TITLE "0:"
    INDEX 01 02:00:18
  TRACK 69 AUDIO
    TITLE "13:cjc040_1087"
    INDEX 01 02:00:69
  TRACK 70 AUDIO
    TITLE "0:"
    INDEX 01 02:02:54
  TRACK 71 AUDIO
    TITLE "14:cjc040_1088"
    INDEX 01 02:03:32
  TRACK 72 AUDIO
    TITLE "0:"
    INDEX 01 02:09:09
  TRACK 73 AUDIO
    TITLE "12:cjc040_1089"
    INDEX 01 02:09:60
  TRACK 74 AUDIO
    TITLE "0:"
    INDEX 01 02:12:03
  TRACK 75 AUDIO
    TITLE "13:cjc040_1090"
    INDEX 01 02:12:64
  TRACK 76 AUDIO
    TITLE "0:"
    INDEX 01 02:14:00
  TRACK 77 AUDIO
    TITLE "14:cjc040_1091"
    INDEX 01 02:14:47
  TRACK 78 AUDIO
    TITLE "0:"
    INDEX 01 02:20:03
  TRACK 79 AUDIO
    TITLE "12:cjc040_1092"
    INDEX 01 02:20:58
  TRACK 80 AUDIO
    TITLE "0:"
    INDEX 01 02:22:09
  TRACK 81 AUDIO
    TITLE "13:cjc040_1093"
    INDEX 01 02:22:62
  TRACK 82 AUDIO
    TITLE "0:"
    INDEX 01 02:24:69
  TRACK 83 AUDIO
    TITLE "14:cjc040_1094"
    INDEX 01 02:25:45
  TRACK 84 AUDIO
    TITLE "0:"
    INDEX 01 02:32:04
